<?xml version="1.0" encoding="utf-8" ?>
<svg xmlns="http://www.w3.org/2000/svg" xmlns:xlink="http://www.w3.org/1999/xlink" width="512" height="512">
	<path d="M453.384 214.833L441.944 208.178C438.865 206.348 435.919 204.212 432.612 202.816L432.534 175.843C432.535 169.865 432.166 163.605 432.894 157.673C430.334 155.654 424.153 152.567 420.778 150.39L331.161 96.3658C329.188 95.2086 323.757 92.6786 322.604 91.8079L378.147 57.2283C384.473 60.0365 390.502 64.2648 396.438 67.835L482.611 118.56C484.494 119.574 486.698 120.456 488.387 121.743L487.903 235.031C485.003 232.908 481.406 231.201 478.302 229.343L453.384 214.833Z"/>
	<path d="M59.1211 214.233L26.8726 232.624C25.9263 233.189 24.9621 233.594 24.0969 234.285L24.0538 123.524L26.146 122.301C28.7903 121.024 31.3845 119.344 33.954 117.896L135.203 57.3997L190.02 90.7856C185.957 92.6099 182.183 95.1747 178.407 97.527L83.4325 154.419C82.4647 154.981 80.2376 155.46 79.7005 156.494C79.4019 157.069 79.6218 198.769 79.5838 202.72C78.1272 203.852 73.9104 205.662 71.9065 206.788L59.1211 214.233Z"/>
	<path d="M254.916 162.126L176.441 207.649C174.446 208.829 171.853 209.877 170.111 211.341L170.313 310.454C170.316 314.195 170.028 318.223 170.669 321.911L147.89 336.321C146.206 335.72 144.438 334.237 142.864 333.288L116.826 318.061C114.486 316.743 111.907 315.511 109.686 314.032L109.942 177.091L111.112 176.547C116.109 174.263 120.995 171.106 125.759 168.352L256.332 91.222L399.633 176.843C400.394 177.246 401.875 177.68 402.257 178.569C402.569 179.294 402.261 301.955 402.262 313.448C401.245 314.527 399.152 315.151 397.806 315.94L373.018 329.975C363.673 335.023 366.844 335.983 357.525 330.642L343.158 322.148C342.482 321.754 341.969 321.35 341.405 320.806L341.665 211.462C340.825 210.543 339.508 210.227 338.425 209.623L265.429 166.555C262.658 164.924 258.129 160.739 254.916 162.126Z"/>
	<path d="M255.381 385.154L148.067 449.228C143.985 446.012 139.181 443.525 134.664 440.966L33.3373 381.563C22.7893 375.546 23.8403 379.288 23.8146 367.639L23.9019 276.793C23.932 275.024 23.554 273.637 25.5087 272.935C28.8158 271.747 32.1292 269.449 35.25 267.766L66.6558 249.927C70.1443 247.962 74.1631 245.248 77.9657 244.046C78.4971 243.878 78.9391 243.76 79.3813 243.404L79.8886 338.878C80.8862 339.752 87.0734 342.662 88.8994 343.713L148.115 378.917L214.342 339.578C217.413 337.792 220.522 335.68 223.845 334.415L224.222 221.836C225.029 220.706 226.141 220.499 227.294 219.819L235.871 214.696C242.558 210.699 249.133 206.331 256.019 202.694L278.384 216.076C280.946 217.557 283.685 219.473 286.405 220.598C289.165 221.739 288.164 223.569 288.154 226.06L288.173 326.996C288.175 328.457 287.456 333.742 288.782 334.407C293.666 336.854 298.315 339.857 302.98 342.695L346.007 367.51C351.639 370.75 357.814 373.855 362.989 377.769L432.605 337.028L432.52 244.142C448.539 251.974 463.656 261.011 479.011 270.096L485.81 274.124C489.649 276.348 488.259 276.695 488.259 281.01L488.325 375.835C487.751 376.626 486.262 377.039 485.382 377.536L394.167 430.651C384.175 436.641 373.354 441.791 364.064 448.839C363.074 448.75 361.005 447.012 360.078 446.414L256.125 384.796L255.381 385.154Z"/>
</svg>
